<svg width="250" height="54" viewBox="0 0 250 54" fill="none" xmlns="http://www.w3.org/2000/svg">
<path d="M121.221 53.8461V43.005H123.479V53.8461H121.221Z" fill="#283339"/>
<path d="M130.318 53.846H128.059V44.9294H125.17V43.0178H133.22V44.9294H130.331V53.846H130.318Z" fill="#283339"/>
<path d="M142.772 47.7648H146.999V53.3842C146.444 53.5766 145.864 53.7178 145.258 53.8332C144.652 53.9487 143.971 54 143.214 54C142.154 54 141.258 53.7819 140.513 53.3585C139.769 52.9351 139.214 52.3065 138.835 51.4726C138.457 50.6386 138.255 49.6251 138.255 48.4063C138.255 47.2644 138.469 46.2894 138.898 45.4555C139.327 44.6215 139.958 43.9801 140.791 43.531C141.624 43.082 142.633 42.851 143.832 42.851C144.4 42.851 144.955 42.9152 145.498 43.0435C146.04 43.1718 146.545 43.3257 146.987 43.5182L146.242 45.3528C145.914 45.186 145.548 45.0449 145.132 44.9294C144.715 44.814 144.274 44.7627 143.819 44.7627C143.163 44.7627 142.595 44.9166 142.116 45.2245C141.636 45.5324 141.258 45.9558 140.993 46.5075C140.728 47.0592 140.602 47.7135 140.602 48.4576C140.602 49.1632 140.69 49.7919 140.879 50.3307C141.069 50.8696 141.371 51.3058 141.775 51.6137C142.179 51.9216 142.722 52.0756 143.378 52.0756C143.693 52.0756 143.971 52.0627 144.185 52.0242C144.412 51.9986 144.614 51.9601 144.804 51.9216V49.6636H142.785V47.752L142.772 47.7648Z" fill="#283339"/>
<path d="M151.579 53.846H149.358V42.3122H151.579V53.846Z" fill="#283339"/>
<path d="M161.283 49.6892C161.283 50.382 161.194 50.9979 161.005 51.5239C160.828 52.0627 160.563 52.5118 160.21 52.871C159.857 53.2431 159.44 53.5125 158.961 53.7049C158.481 53.8974 157.926 53.9872 157.308 53.9872C156.74 53.9872 156.21 53.8974 155.731 53.7049C155.251 53.5125 154.835 53.2431 154.481 52.871C154.128 52.4989 153.851 52.0499 153.661 51.5239C153.472 50.9979 153.371 50.382 153.371 49.6892C153.371 48.7655 153.535 47.9957 153.851 47.3543C154.166 46.7128 154.633 46.2381 155.226 45.9045C155.819 45.5709 156.526 45.4041 157.346 45.4041C158.115 45.4041 158.784 45.5709 159.377 45.9045C159.97 46.2381 160.437 46.7256 160.765 47.3543C161.106 47.9957 161.27 48.7655 161.27 49.6892H161.283ZM155.642 49.6892C155.642 50.2281 155.705 50.69 155.819 51.062C155.933 51.4341 156.122 51.7163 156.362 51.8959C156.614 52.0884 156.929 52.1782 157.333 52.1782C157.737 52.1782 158.052 52.0884 158.292 51.8959C158.532 51.7035 158.721 51.4212 158.835 51.062C158.948 50.7028 159.011 50.2281 159.011 49.6892C159.011 49.1504 158.948 48.6885 158.835 48.3165C158.721 47.9572 158.544 47.675 158.292 47.4954C158.04 47.3158 157.724 47.226 157.321 47.226C156.727 47.226 156.311 47.4312 156.046 47.8418C155.781 48.2523 155.655 48.8681 155.655 49.6892H155.642Z" fill="#283339"/>
<path d="M165.282 42.3122V44.9936C165.282 45.3015 165.282 45.6094 165.257 45.9173C165.232 46.2252 165.219 46.4562 165.194 46.623H165.282C165.497 46.2766 165.787 45.9943 166.153 45.7505C166.519 45.5068 166.998 45.3913 167.591 45.3913C168.5 45.3913 169.244 45.7505 169.812 46.4818C170.38 47.2131 170.67 48.278 170.67 49.6764C170.67 50.6258 170.544 51.4084 170.279 52.0499C170.014 52.6914 169.648 53.1661 169.181 53.4996C168.714 53.8204 168.159 53.9872 167.541 53.9872C166.923 53.9872 166.468 53.8845 166.128 53.6664C165.787 53.4483 165.497 53.2046 165.295 52.9351H165.143L164.765 53.846H163.062V42.3122H165.282ZM166.872 47.2131C166.481 47.2131 166.178 47.2901 165.951 47.4569C165.724 47.6237 165.56 47.8674 165.446 48.1882C165.333 48.5089 165.282 48.9323 165.27 49.4198V49.6636C165.27 50.4719 165.383 51.0877 165.623 51.5111C165.85 51.9344 166.279 52.1525 166.897 52.1525C167.352 52.1525 167.718 51.9344 167.983 51.5111C168.248 51.0877 168.386 50.459 168.386 49.6508C168.386 48.8425 168.248 48.2267 167.983 47.8161C167.718 47.4056 167.339 47.2003 166.872 47.2003V47.2131Z" fill="#283339"/>
<path d="M175.806 45.3913C176.904 45.3913 177.737 45.6351 178.317 46.1226C178.898 46.6101 179.188 47.3414 179.188 48.3293V53.846H177.636L177.207 52.717H177.144C176.917 53.0121 176.677 53.2559 176.425 53.4483C176.185 53.6408 175.907 53.7691 175.592 53.8589C175.276 53.9487 174.898 53.9872 174.444 53.9872C173.964 53.9872 173.535 53.8974 173.144 53.7049C172.765 53.5125 172.463 53.2302 172.248 52.8453C172.033 52.4604 171.92 51.9601 171.92 51.3699C171.92 50.4975 172.223 49.8432 172.828 49.4198C173.434 48.9964 174.343 48.7655 175.566 48.727L176.98 48.6757V48.3165C176.98 47.8803 176.866 47.5595 176.639 47.3542C176.412 47.149 176.109 47.0463 175.705 47.0463C175.302 47.0463 174.923 47.0976 174.544 47.2131C174.166 47.3286 173.787 47.4697 173.409 47.6365L172.677 46.1098C173.106 45.8788 173.598 45.6992 174.128 45.5581C174.658 45.4298 175.226 45.3528 175.794 45.3528L175.806 45.3913ZM176.992 50.01L176.134 50.0356C175.415 50.0613 174.91 50.1896 174.633 50.4334C174.355 50.6771 174.216 50.9979 174.216 51.3956C174.216 51.742 174.317 51.9857 174.519 52.1269C174.721 52.268 174.973 52.345 175.302 52.345C175.781 52.345 176.185 52.2038 176.513 51.9216C176.841 51.6393 177.005 51.2288 177.005 50.7028V50.0228L176.992 50.01Z" fill="#283339"/>
<path d="M183.604 53.846H181.383V42.3122H183.604V53.846Z" fill="#283339"/>
<path d="M196.285 50.8439C196.285 51.4854 196.133 52.0499 195.83 52.5246C195.528 52.9993 195.073 53.3585 194.493 53.6151C193.912 53.8717 193.193 54 192.36 54C191.995 54 191.629 53.9744 191.275 53.923C190.922 53.8717 190.581 53.8076 190.266 53.7049C189.938 53.6151 189.635 53.4868 189.345 53.3457V51.216C189.849 51.4469 190.379 51.6522 190.922 51.8318C191.465 52.0114 192.007 52.1012 192.537 52.1012C192.903 52.1012 193.206 52.0499 193.433 51.9601C193.66 51.8575 193.824 51.7292 193.925 51.5496C194.026 51.3699 194.076 51.1775 194.076 50.9594C194.076 50.69 193.988 50.459 193.812 50.2666C193.635 50.0741 193.382 49.8945 193.067 49.7277C192.752 49.561 192.398 49.3813 192.007 49.1889C191.755 49.0734 191.49 48.9323 191.2 48.7527C190.909 48.5859 190.632 48.3678 190.367 48.124C190.102 47.8803 189.887 47.5724 189.723 47.226C189.559 46.8667 189.471 46.4434 189.471 45.9558C189.471 45.3143 189.61 44.7498 189.913 44.3008C190.203 43.8389 190.619 43.4925 191.162 43.2488C191.704 43.005 192.348 42.8767 193.08 42.8767C193.635 42.8767 194.165 42.9409 194.67 43.0692C195.174 43.1975 195.692 43.3899 196.247 43.6337L195.515 45.417C195.023 45.2117 194.581 45.0578 194.19 44.9423C193.799 44.8268 193.408 44.7755 193.004 44.7755C192.726 44.7755 192.487 44.8268 192.285 44.9166C192.083 45.0064 191.931 45.1347 191.83 45.3015C191.73 45.4683 191.679 45.6607 191.679 45.8788C191.679 46.1354 191.755 46.3535 191.906 46.5203C192.058 46.6999 192.285 46.8667 192.575 47.0335C192.878 47.2003 193.244 47.3927 193.698 47.598C194.241 47.8546 194.707 48.1369 195.099 48.4191C195.49 48.7014 195.78 49.0349 195.994 49.4198C196.209 49.8047 196.31 50.2794 196.31 50.8439H196.285Z" fill="#283339"/>
<path d="M201.521 45.4041C202.278 45.4041 202.922 45.5453 203.464 45.8403C204.007 46.1354 204.423 46.5588 204.726 47.1233C205.029 47.6878 205.168 48.3678 205.168 49.176V50.2666H199.906C199.931 50.908 200.121 51.4084 200.474 51.7676C200.827 52.1269 201.319 52.3065 201.938 52.3065C202.455 52.3065 202.934 52.2552 203.363 52.1397C203.792 52.0242 204.247 51.8703 204.701 51.6522V53.397C204.297 53.6023 203.881 53.7434 203.439 53.846C202.998 53.9358 202.468 53.9872 201.837 53.9872C201.017 53.9872 200.297 53.8332 199.666 53.5253C199.036 53.2174 198.543 52.7555 198.19 52.1269C197.837 51.4982 197.66 50.7028 197.66 49.7534C197.66 48.804 197.824 47.9829 198.14 47.3286C198.468 46.6871 198.909 46.1996 199.49 45.8788C200.07 45.5581 200.739 45.3913 201.509 45.3913L201.521 45.4041ZM201.534 47.0207C201.105 47.0207 200.739 47.1618 200.461 47.444C200.171 47.7263 200.02 48.1625 199.969 48.7655H203.086C203.086 48.4319 203.023 48.124 202.909 47.8674C202.796 47.6108 202.619 47.3927 202.392 47.2516C202.165 47.1105 201.875 47.0207 201.534 47.0207Z" fill="#283339"/>
<path d="M211.541 45.4041C211.654 45.4041 211.78 45.4041 211.932 45.417C212.083 45.4298 212.197 45.4426 212.298 45.4683L212.134 47.5852C212.058 47.5595 211.957 47.5339 211.831 47.5339C211.692 47.521 211.578 47.521 211.478 47.521C211.187 47.521 210.91 47.5595 210.645 47.6365C210.38 47.7135 210.127 47.8289 209.925 47.9957C209.711 48.1625 209.547 48.3806 209.421 48.65C209.295 48.9195 209.232 49.253 209.232 49.6379V53.8589H207.011V45.5709H208.689L209.017 46.9694H209.131C209.295 46.6871 209.496 46.4305 209.736 46.1996C209.976 45.9686 210.254 45.7762 210.556 45.6351C210.859 45.494 211.2 45.417 211.553 45.417L211.541 45.4041Z" fill="#283339"/>
<path d="M216.499 53.8461L213.395 45.5581H215.716L217.293 50.2794C217.382 50.5617 217.458 50.8439 217.508 51.1518C217.558 51.4597 217.596 51.7292 217.609 51.9729H217.672C217.685 51.7163 217.722 51.4341 217.773 51.139C217.823 50.8439 217.899 50.5488 218 50.2794L219.565 45.5581H221.886L218.782 53.8461H216.499Z" fill="#283339"/>
<path d="M224.234 42.3122C224.562 42.3122 224.852 42.3892 225.092 42.5431C225.332 42.6971 225.445 42.9922 225.445 43.4155C225.445 43.8389 225.332 44.1212 225.092 44.288C224.852 44.4547 224.574 44.5317 224.234 44.5317C223.893 44.5317 223.616 44.4547 223.376 44.288C223.136 44.1212 223.022 43.8389 223.022 43.4155C223.022 42.9922 223.136 42.6971 223.376 42.5431C223.616 42.3892 223.893 42.3122 224.234 42.3122ZM225.344 45.5581V53.846H223.123V45.5581H225.344Z" fill="#283339"/>
<path d="M230.921 54C230.113 54 229.432 53.846 228.852 53.551C228.271 53.2559 227.855 52.794 227.552 52.1654C227.249 51.5367 227.11 50.7413 227.11 49.7534C227.11 48.7655 227.274 47.9187 227.615 47.2773C227.956 46.6358 228.423 46.1611 229.028 45.866C229.634 45.5709 230.328 45.417 231.11 45.417C231.678 45.417 232.158 45.4683 232.574 45.5837C232.99 45.6992 233.344 45.8275 233.646 45.9815L232.99 47.7263C232.637 47.5852 232.322 47.4697 232.019 47.3671C231.716 47.2773 231.413 47.2259 231.11 47.2259C230.719 47.2259 230.404 47.3158 230.139 47.5082C229.886 47.7006 229.684 47.9701 229.558 48.3421C229.432 48.7142 229.369 49.176 229.369 49.7406C229.369 50.3051 229.432 50.7413 229.571 51.1005C229.71 51.4597 229.899 51.7292 230.164 51.9088C230.416 52.0884 230.732 52.1654 231.098 52.1654C231.565 52.1654 231.968 52.1012 232.334 51.9729C232.688 51.8446 233.041 51.665 233.381 51.4469V53.3842C233.041 53.6023 232.687 53.7562 232.309 53.8589C231.93 53.9487 231.464 54 230.896 54H230.921Z" fill="#283339"/>
<path d="M238.543 45.4041C239.3 45.4041 239.943 45.5453 240.486 45.8403C241.028 46.1354 241.445 46.5588 241.748 47.1233C242.051 47.6878 242.189 48.3678 242.189 49.176V50.2666H236.928C236.953 50.908 237.142 51.4084 237.495 51.7676C237.849 52.1269 238.341 52.3065 238.959 52.3065C239.476 52.3065 239.956 52.2552 240.385 52.1397C240.814 52.0242 241.268 51.8703 241.722 51.6522V53.397C241.319 53.6023 240.902 53.7434 240.461 53.846C240.019 53.9358 239.489 53.9872 238.858 53.9872C238.038 53.9872 237.319 53.8332 236.688 53.5253C236.057 53.2174 235.565 52.7555 235.212 52.1269C234.858 51.4982 234.682 50.7028 234.682 49.7534C234.682 48.804 234.846 47.9829 235.161 47.3286C235.489 46.6871 235.931 46.1996 236.511 45.8788C237.092 45.5581 237.76 45.3913 238.53 45.3913L238.543 45.4041ZM238.555 47.0207C238.126 47.0207 237.76 47.1618 237.483 47.444C237.193 47.7263 237.041 48.1625 236.991 48.7655H240.107C240.107 48.4319 240.044 48.124 239.931 47.8674C239.817 47.6108 239.641 47.3927 239.413 47.2516C239.186 47.1105 238.896 47.0207 238.555 47.0207Z" fill="#283339"/>
<path d="M249.785 51.3956C249.785 51.9601 249.659 52.4348 249.394 52.8197C249.129 53.2046 248.751 53.4997 248.233 53.7049C247.716 53.9102 247.072 54 246.303 54C245.735 54 245.243 53.9615 244.839 53.8845C244.435 53.8076 244.019 53.6921 243.615 53.5125V51.6393C244.057 51.8446 244.536 52.0114 245.041 52.1397C245.546 52.268 246 52.3322 246.378 52.3322C246.807 52.3322 247.123 52.268 247.312 52.1397C247.501 52.0114 247.59 51.8318 247.59 51.6265C247.59 51.4854 247.552 51.3699 247.476 51.2545C247.4 51.139 247.236 51.0235 246.984 50.8696C246.732 50.7284 246.353 50.5488 245.823 50.3179C245.319 50.0998 244.89 49.8817 244.561 49.6508C244.233 49.4327 243.994 49.1632 243.83 48.8681C243.666 48.5602 243.59 48.1753 243.59 47.7135C243.59 46.9437 243.88 46.3664 244.473 45.9815C245.054 45.5966 245.848 45.4041 246.82 45.4041C247.325 45.4041 247.804 45.4555 248.271 45.5581C248.725 45.6607 249.205 45.8275 249.684 46.0585L249.016 47.6878C248.612 47.5082 248.233 47.3671 247.88 47.2516C247.527 47.1361 247.161 47.0848 246.782 47.0848C246.454 47.0848 246.214 47.1361 246.05 47.2131C245.886 47.3029 245.798 47.4441 245.798 47.6237C245.798 47.752 245.836 47.8803 245.924 47.9829C246.013 48.0855 246.177 48.201 246.416 48.3293C246.656 48.4576 247.022 48.6116 247.501 48.8168C247.968 49.0093 248.359 49.2145 248.7 49.4198C249.041 49.6251 249.306 49.8945 249.482 50.2024C249.659 50.5103 249.76 50.9081 249.76 51.3956H249.785Z" fill="#283339"/>
<path d="M249.621 0.192444V20.2452H230.568V34.4091H219.691V0.192444H230.568V12.4832H240.612V0.192444H249.621Z" fill="#58A333"/>
<path d="M245.091 34.422C247.802 34.422 249.999 32.1875 249.999 29.4312C249.999 26.6749 247.802 24.4405 245.091 24.4405C242.38 24.4405 240.183 26.6749 240.183 29.4312C240.183 32.1875 242.38 34.422 245.091 34.422Z" fill="#58A333"/>
<path d="M51.0275 9.37847V15.1262H64.8063V23.6707H51.0275V34.4091H39.8984V0.833923H66.7369V9.37847H51.0275Z" fill="#13056D"/>
<path d="M89.7644 35.1789C87.0642 35.1789 84.5658 34.7427 82.282 33.8831C79.9981 33.0235 78.0297 31.7919 76.3641 30.2138C74.6986 28.6358 73.3989 26.7626 72.4778 24.6329C71.5567 22.5032 71.0898 20.1554 71.0898 17.6279C71.0898 15.1005 71.5567 12.727 72.4778 10.5973C73.4116 8.46757 74.6986 6.6201 76.3641 5.02922C78.0297 3.45118 79.9981 2.21953 82.282 1.35994C84.5658 0.500356 87.039 0.0641479 89.714 0.0641479C92.389 0.0641479 94.9 0.500356 97.1712 1.35994C99.4298 2.21953 101.398 3.45118 103.064 5.02922C104.729 6.60727 106.029 8.46757 106.95 10.5973C107.884 12.727 108.338 15.062 108.338 17.6279C108.338 20.1939 107.871 22.4904 106.95 24.6329C106.016 26.7755 104.729 28.6358 103.064 30.2138C101.398 31.7919 99.4298 33.0235 97.1712 33.8831C94.9126 34.7427 92.4394 35.1789 89.7644 35.1789ZM89.714 26.0185C90.7487 26.0185 91.7202 25.8261 92.6161 25.4412C93.512 25.0563 94.2943 24.5046 94.9757 23.7862C95.6444 23.0677 96.1744 22.1825 96.5529 21.1433C96.9315 20.1041 97.1207 18.9237 97.1207 17.6151C97.1207 16.3065 96.9315 15.1262 96.5529 14.087C96.1744 13.0478 95.6444 12.1753 94.9757 11.444C94.3069 10.7128 93.512 10.1739 92.6161 9.78902C91.7202 9.40413 90.7487 9.21169 89.714 9.21169C88.6793 9.21169 87.7077 9.40413 86.8118 9.78902C85.916 10.1739 85.1336 10.7256 84.4523 11.444C83.7709 12.1625 83.2536 13.0478 82.875 14.087C82.4965 15.1262 82.3072 16.3065 82.3072 17.6151C82.3072 18.9237 82.4965 20.1041 82.875 21.1433C83.2536 22.1825 83.7835 23.0549 84.4523 23.7862C85.121 24.5046 85.916 25.0563 86.8118 25.4412C87.7077 25.8261 88.6793 26.0185 89.714 26.0185Z" fill="#13056D"/>
<path d="M121.234 34.4091V9.6094H111.568V0.833923H142.041V9.6094H132.375V34.4091H121.246H121.234Z" fill="#58A333"/>
<path d="M175.668 25.8646V34.4091H148.211V0.833923H175.062V9.37847H159.163V13.3043H173.119V21.464H159.163V25.8646H175.668Z" fill="#58A333"/>
<path d="M198.923 35.1789C196.286 35.1789 193.838 34.7555 191.592 33.9087C189.346 33.062 187.39 31.856 185.738 30.2908C184.085 28.7256 182.81 26.8653 181.889 24.7227C180.981 22.5802 180.514 20.2195 180.514 17.6279C180.514 15.0363 180.968 12.6757 181.889 10.5331C182.798 8.39058 184.085 6.53028 185.738 4.96506C187.39 3.39985 189.334 2.19386 191.592 1.3471C193.838 0.500343 196.286 0.0769653 198.923 0.0769653C202.166 0.0769653 205.03 0.6543 207.529 1.80897C210.027 2.96364 212.096 4.61866 213.737 6.7997L206.709 13.176C205.737 11.9316 204.652 10.9565 203.478 10.2765C202.292 9.59657 200.967 9.25016 199.491 9.25016C198.33 9.25016 197.27 9.44261 196.324 9.8275C195.378 10.2124 194.57 10.7769 193.889 11.5082C193.22 12.2395 192.69 13.1375 192.311 14.1639C191.933 15.2031 191.744 16.3578 191.744 17.6408C191.744 18.9237 191.933 20.0784 192.311 21.1176C192.69 22.1568 193.22 23.042 193.889 23.7733C194.557 24.5046 195.378 25.0691 196.324 25.454C197.27 25.8389 198.318 26.0313 199.491 26.0313C200.967 26.0313 202.292 25.6849 203.478 25.005C204.664 24.325 205.737 23.35 206.709 22.1055L213.737 28.4818C212.096 30.6244 210.04 32.2794 207.529 33.4469C205.03 34.6144 202.153 35.1917 198.923 35.1917V35.1789Z" fill="#58A333"/>
<path d="M29.2482 12.7783C31.9591 12.7783 34.1566 10.5439 34.1566 7.78761C34.1566 5.0313 31.9591 2.79688 29.2482 2.79688C26.5374 2.79688 24.3398 5.0313 24.3398 7.78761C24.3398 10.5439 26.5374 12.7783 29.2482 12.7783Z" fill="#13056D"/>
<path d="M26.3211 22.144C24.3779 24.6458 22.0562 26.0955 19.0658 26.0955C14.4223 26.0955 11.2931 22.8239 11.2931 17.6536C11.2931 12.4832 14.3719 9.26301 18.9648 9.21169L23.2423 0.474698C21.766 0.153957 20.1761 0 18.5106 0C7.83576 0 0 7.28724 0 17.6536C0 28.02 7.83576 35.32 18.5106 35.32C25.0214 35.32 30.1443 32.9081 33.4124 28.5588L26.3337 22.144H26.3211Z" fill="#13056D"/>
</svg>
